<svg xmlns="http://www.w3.org/2000/svg" viewBox="0 0 309.58 375.45"><defs><style>.cls-1,.cls-3{fill:none;stroke-miterlimit:10;stroke-width:5px;stroke-dasharray:12;}.cls-1{stroke:#f1f5f9;}.cls-1,.cls-2,.cls-4,.cls-6{opacity:0.7;}.cls-3{stroke:#333;}.cls-4,.cls-7{fill:#f1f5f9;}.cls-5,.cls-6{fill:#333;}</style></defs><g id="Warstwa_1" data-name="Warstwa 1"><path class="cls-1" d="M143.67,186" transform="translate(-5.25 -6.23)"/><g class="cls-2"><path class="cls-3" d="M233.41,363.17H37.46A29.71,29.71,0,0,1,7.75,333.46V54.14a29.71,29.71,0,0,1,29.71-29.7H89.75" transform="translate(-5.25 -6.23)"/><path class="cls-3" d="M233.41,363.17" transform="translate(-5.25 -6.23)"/><path class="cls-3" d="M279.58,300.26" transform="translate(-5.25 -6.23)"/><path class="cls-3" d="M214.82,24.44h35.06a29.7,29.7,0,0,1,29.7,29.7V300.26" transform="translate(-5.25 -6.23)"/><rect class="cls-3" x="89.74" y="2.5" width="107.23" height="31.4" rx="6.13"/></g><path class="cls-4" d="M143.67,186" transform="translate(-5.25 -6.23)"/><g class="cls-2"><rect class="cls-5" x="84.5" y="87.93" width="144.51" height="7.15" rx="3.57"/><rect class="cls-5" x="47.82" y="83.89" width="15.23" height="15.23" rx="7.62"/><rect class="cls-5" x="84.5" y="146.74" width="144.51" height="7.15" rx="3.57"/><rect class="cls-5" x="47.82" y="142.7" width="15.23" height="15.23" rx="7.62"/><rect class="cls-5" x="84.5" y="205.55" width="144.51" height="7.15" rx="3.57"/><rect class="cls-5" x="47.82" y="201.5" width="15.23" height="15.23" rx="7.62"/><rect class="cls-5" x="84.5" y="264.36" width="144.51" height="7.15" rx="3.57"/><rect class="cls-5" x="47.82" y="260.31" width="15.23" height="15.23" rx="7.62"/></g><g class="cls-2"><circle class="cls-6" cx="269.37" cy="335.23" r="40.21"/><path class="cls-7" d="M284.54,341.15c0,10-3.69,15.44-10.17,15.44-5.71,0-9.58-5.36-9.67-15s4.23-15.21,10.17-15.21C281,326.35,284.54,331.84,284.54,341.15Zm-15.88.45c0,7.61,2.34,11.93,5.94,11.93,4,0,6-4.73,6-12.2,0-7.2-1.84-11.92-5.94-11.92C271.18,329.41,268.66,333.64,268.66,341.6Z" transform="translate(-5.25 -6.23)"/></g></g></svg>