<svg xmlns="http://www.w3.org/2000/svg" viewBox="0 0 299.63 355.01"><defs><style>.cls-1,.cls-2{fill:none;stroke:#f1f5f9;stroke-miterlimit:10;stroke-dasharray:12;}.cls-1{stroke-width:5px;}.cls-1,.cls-2,.cls-3,.cls-5{opacity:0.7;}.cls-2{stroke-width:2px;}.cls-4,.cls-5{fill:#f1f5f9;}.cls-6{fill:#333;}</style></defs><g id="Warstwa_1" data-name="Warstwa 1"><path class="cls-1" d="M221.11,343.68H36.44A31.69,31.69,0,0,1,4.75,312V36.64A31.69,31.69,0,0,1,36.44,5H186.9A31,31,0,0,1,208.82,14L267.7,72.91a30.34,30.34,0,0,1,8.88,21.46V283.74" transform="translate(-2.25 -2.45)"/><path class="cls-2" d="M221.11,343.68" transform="translate(-2.25 -2.45)"/></g><g id="Warstwa_3" data-name="Warstwa 3"><g class="cls-3"><rect class="cls-4" x="37.31" y="242.31" width="202.21" height="5.11" rx="2.55"/><rect class="cls-4" x="37.31" y="183.91" width="202.21" height="5.11" rx="2.55"/><rect class="cls-4" x="37.31" y="213.11" width="202.21" height="5.11" rx="2.55"/><rect class="cls-4" x="37.31" y="154.71" width="202.21" height="5.11" rx="2.55"/><rect class="cls-4" x="37.31" y="125.52" width="202.21" height="5.11" rx="2.55"/><rect class="cls-4" x="37.31" y="96.32" width="202.21" height="5.11" rx="2.55"/></g></g><g id="Warstwa_2" data-name="Warstwa 2"><circle class="cls-5" cx="259.42" cy="314.79" r="40.21"/><path class="cls-6" d="M271.59,316.93c0,9.95-3.69,15.44-10.17,15.44-5.71,0-9.58-5.36-9.67-15s4.23-15.21,10.17-15.21C268.08,302.13,271.59,307.62,271.59,316.93Zm-15.88.45c0,7.61,2.34,11.93,5.94,11.93,4.05,0,6-4.73,6-12.2,0-7.2-1.84-11.92-5.94-11.92C258.23,305.19,255.71,309.42,255.71,317.38Z" transform="translate(-2.25 -2.45)"/></g></svg>