<svg id="Warstwa_1" data-name="Warstwa 1" xmlns="http://www.w3.org/2000/svg" viewBox="0 0 478.99 478.99"><defs><style>.cls-1{fill:#1571af;}</style></defs><path class="cls-1" d="M241.48,2.08C109.21,2.08,2,109.31,2,241.58S109.21,481.07,241.48,481.07,481,373.85,481,241.58,373.75,2.08,241.48,2.08ZM239.75,394.5c0,3.18-1.44,4.48-4.61,4.36C162.55,397.14,68.74,377.75,49,296.06c-3.66-8.85,6.64-4,11.56-5.15,14.41.54,13.88-1.68,18.75,14.11C95,349.93,147.23,365,189.73,371.18c14.83,2.1,29.7,4,44.73,4C243.89,375.17,238.37,388.51,239.75,394.5Zm1.33-282.74c-4.09-5.94-4.11-6-7.52.08-22,37.69-57.4,64.67-83.14,99.52C89.34,290.14,131,328,218.34,333.23c20.35,2,22.08-3.32,21.47,20,3.45,11.68-54.53-1.12-61.57-2.19-91.12-16-103-85.14-56.39-155.83,39.29-56.4,84.53-108.35,120.84-166.88a2.7,2.7,0,0,1,.94,3.14c-4,18.61,3.42,33,15.5,46.7,45.34,62,159.14,144.1,120.56,229.16-25.23,39.93-78.75,46.45-122,49.84-8.82.1-4.16-14.26-5.49-20.1,0-3.65,2.68-3.65,5.26-3.7,68.77-2.14,141-29.07,85.08-106.93C313.23,184.18,270.65,153.72,241.08,111.76ZM229.25,315.92c-23.41-1.55-46.88-4-69.2-11.8-30.37-9.11-8.1-50.9,5.11-67.81,20.77-31.71,58.84-50,68.83-88.49,1-3.1.94-3.14,2.9-5.53,3,18.84.51,39.53,1.88,59,1,11.9-12.66,2.37-26,17.7-15.1,14.26-28.44,30-37.59,48.8-5.28,10.87-4.08,13.33,7.23,16.65,24.38,10.56,9.49-21.32,50.28-52.39,9-8.76,5.36,17,6.08,21.36-4.14,11.2-14.52,19.55-15.86,32.38-1.88,13.53,18.52-4.43,16,17.48C238.7,312.81,241,317.72,229.25,315.92Zm33.1-33.36c-1.73-7.47-5.41-13.93-9.85-20-4.12-9.64-.59-20.58-1.73-32.23,19.12,13.85,29.86,31.42,36.7,52.29,1.1,3.75,3.09,4.72,6.64,3.67,6-2.79,19.73-1.51,16.33-11.52-7.36-22.42-23.63-40.62-39.63-57.45-7.48-9.47-20.49-4.22-19.72-11.82.08-13.32,0-26.64,0-40-.77-4,2.64-4.25,3.57-.92,26.9,40.48,75.94,64,83,118,4.51,26.75-40.81,27.6-59,31.38-6.14-.64-26.69,6.84-26-2.94,1.17-5.44-4.34-17.95,3.39-18.93C264.4,291,264.28,290.92,262.35,282.56Zm154.56,52.85c-37.22,47-102.15,60.86-159.27,62.74-3-.06-4.67-1-4.76-4.29,1.25-6-5.17-19.15,4.36-19.53,18.92,0,37.49-3.19,55.84-7.25,36.88-8.43,82.15-24.34,92.22-65.46,2.6-13.17,4.23-10,16.5-10.38h0c4.87.61,15.11-2.57,12.56,5.78A106.39,106.39,0,0,1,416.91,335.41Z" transform="translate(-1.99 -2.08)"/></svg>