<svg id="Warstwa_2" data-name="Warstwa 2" xmlns="http://www.w3.org/2000/svg" viewBox="0 0 441 148"><defs><style>.cls-1{fill:#5c6ccc;}</style></defs><path class="cls-1" d="M260.65,80a12,12,0,1,0,12,12A12,12,0,0,0,260.65,80Zm0,21.16A9.18,9.18,0,1,1,269.82,92,9.18,9.18,0,0,1,260.65,101.18Z"/><path class="cls-1" d="M61.51,0A61.51,61.51,0,0,1,0,61.51V80.34A80.34,80.34,0,0,0,80.34,0Z"/><path class="cls-1" d="M366.65,148A76.56,76.56,0,0,1,441,83.29V59.86A100,100,0,0,0,343,148Z"/><path class="cls-1" d="M91.14,148a27,27,0,0,1,53.68,0h8.32a35.29,35.29,0,0,0-70.31,0Z"/><path class="cls-1" d="M334.75,0a26.94,26.94,0,0,1-26.93,26.94A26.94,26.94,0,0,1,280.88,0h-8.25a35.19,35.19,0,0,0,35.19,35.19A35.19,35.19,0,0,0,343,0Z"/><path class="cls-1" d="M177.54,31.21A24.41,24.41,0,1,0,202,55.62,24.4,24.4,0,0,0,177.54,31.21Zm0,43.09a18.69,18.69,0,1,1,18.69-18.68A18.68,18.68,0,0,1,177.54,74.3Z"/></svg>