<svg id="Warstwa_2" data-name="Warstwa 2" xmlns="http://www.w3.org/2000/svg" viewBox="0 0 1497 162"><defs><style>.cls-1{fill:#5c6ccc;}</style></defs><path class="cls-1" d="M623.3,24a32.79,32.79,0,1,0,32.8,32.79A32.79,32.79,0,0,0,623.3,24Zm0,57.89a25.11,25.11,0,1,1,25.11-25.1A25.1,25.1,0,0,1,623.3,81.93Z" transform="translate(0 0)"/><path class="cls-1" d="M867.75,103.48A13.49,13.49,0,1,0,881.23,117,13.49,13.49,0,0,0,867.75,103.48Zm0,23.81A10.33,10.33,0,1,1,878.07,117,10.32,10.32,0,0,1,867.75,127.29Z" transform="translate(0 0)"/><path class="cls-1" d="M81.71,0A81.71,81.71,0,0,1,0,81.71v25A106.74,106.74,0,0,0,106.74,0Z" transform="translate(0 0)"/><path class="cls-1" d="M1398.49,162A101.43,101.43,0,0,1,1497,76.27V45.21A132.47,132.47,0,0,0,1367.16,162Z" transform="translate(0 0)"/><path class="cls-1" d="M281.35,162a48,48,0,0,1,95.29,0h14.75a62.64,62.64,0,0,0-124.8,0Z" transform="translate(0 0)"/><path class="cls-1" d="M1195.53,0a48,48,0,0,1-48,48,48,48,0,0,1-48-48h-14.69a62.65,62.65,0,0,0,62.65,62.65A62.65,62.65,0,0,0,1210.22,0Z" transform="translate(0 0)"/></svg>